<svg width="57" height="56" viewBox="0 0 57 56" fill="none" xmlns="http://www.w3.org/2000/svg">
<rect x="4.5" y="4" width="48" height="48" rx="24" fill="#FCE7F6"/>
<rect x="4.5" y="4" width="48" height="48" rx="24" stroke="#FDF2FA" stroke-width="8"/>
<mask id="mask0_877_2483" style="mask-type:alpha" maskUnits="userSpaceOnUse" x="16" y="16" width="24" height="24">
<rect x="16" y="16" width="24" height="24" fill="#D9D9D9"/>
</mask>
<g mask="url(#mask0_877_2483)">
<path d="M24.75 38.425C23.9833 38.425 23.2958 38.225 22.6875 37.825C22.0792 37.425 21.6083 36.875 21.275 36.175C21.0083 36.525 20.6708 36.7959 20.2625 36.9875C19.8542 37.1792 19.4333 37.275 19 37.275C18.15 37.275 17.4375 36.9834 16.8625 36.4C16.2875 35.8167 16 35.1084 16 34.275C16 33.5584 16.2333 32.9125 16.7 32.3375C17.1667 31.7625 17.7583 31.4334 18.475 31.35C18.2417 31.0167 18.0625 30.6625 17.9375 30.2875C17.8125 29.9125 17.75 29.5167 17.75 29.1C17.75 28.4334 17.9208 27.8084 18.2625 27.225C18.6042 26.6417 19.0833 26.1667 19.7 25.8C19.7833 26.1 19.8958 26.4209 20.0375 26.7625C20.1792 27.1042 20.3417 27.4 20.525 27.65C20.2917 27.8334 20.1083 28.0542 19.975 28.3125C19.8417 28.5709 19.775 28.8417 19.775 29.125C19.775 30.0584 20.1583 30.6334 20.925 30.85C21.6917 31.0667 22.4167 31.2417 23.1 31.375L23.575 32.175C23.3917 32.7084 23.2333 33.1625 23.1 33.5375C22.9667 33.9125 22.9 34.25 22.9 34.55C22.9 35.05 23.0792 35.4875 23.4375 35.8625C23.7958 36.2375 24.2333 36.425 24.75 36.425C25.2833 36.425 25.7417 36.2209 26.125 35.8125C26.5083 35.4042 26.8292 34.8959 27.0875 34.2875C27.3458 33.6792 27.5542 33.0334 27.7125 32.35C27.8708 31.6667 28 31.05 28.1 30.5C28.15 30.2167 28.2917 29.9959 28.525 29.8375C28.7583 29.6792 29.0083 29.6417 29.275 29.725C29.5583 29.8084 29.7708 29.975 29.9125 30.225C30.0542 30.475 30.0917 30.7417 30.025 31.025C29.875 31.7917 29.6833 32.6084 29.45 33.475C29.2167 34.3417 28.9042 35.1417 28.5125 35.875C28.1208 36.6084 27.6208 37.2167 27.0125 37.7C26.4042 38.1834 25.65 38.425 24.75 38.425ZM19 35.275C19.2833 35.275 19.5208 35.1792 19.7125 34.9875C19.9042 34.7959 20 34.5584 20 34.275C20 33.9917 19.9042 33.7542 19.7125 33.5625C19.5208 33.3709 19.2833 33.275 19 33.275C18.7167 33.275 18.4792 33.3709 18.2875 33.5625C18.0958 33.7542 18 33.9917 18 34.275C18 34.5584 18.0958 34.7959 18.2875 34.9875C18.4792 35.1792 18.7167 35.275 19 35.275ZM26.825 30.6C26.6083 30.8167 26.3458 30.9125 26.0375 30.8875C25.7292 30.8625 25.4583 30.7417 25.225 30.525C23.9417 29.3584 22.9167 28.3 22.15 27.35C21.3833 26.4 21 25.375 21 24.275C21 23.1917 21.3708 22.2792 22.1125 21.5375C22.8542 20.7959 23.7667 20.425 24.85 20.425C24.9167 20.425 24.975 20.4292 25.025 20.4375C25.075 20.4459 25.1333 20.45 25.2 20.45C25.1333 20.2834 25.0833 20.1167 25.05 19.95C25.0167 19.7834 25 19.6084 25 19.425C25 18.5917 25.2917 17.8834 25.875 17.3C26.4583 16.7167 27.1667 16.425 28 16.425C28.8333 16.425 29.5417 16.7167 30.125 17.3C30.7083 17.8834 31 18.5917 31 19.425C31 19.6084 30.9833 19.7792 30.95 19.9375C30.9167 20.0959 30.8667 20.2584 30.8 20.425H31.15C32.15 20.425 33 20.7459 33.7 21.3875C34.4 22.0292 34.8167 22.825 34.95 23.775C34.65 23.725 34.3125 23.7 33.9375 23.7C33.5625 23.7 33.2167 23.7167 32.9 23.75C32.7833 23.3667 32.5708 23.05 32.2625 22.8C31.9542 22.55 31.5833 22.425 31.15 22.425C30.5667 22.425 30.1125 22.5959 29.7875 22.9375C29.4625 23.2792 29.0167 23.775 28.45 24.425H27.525C26.9417 23.7417 26.4875 23.2375 26.1625 22.9125C25.8375 22.5875 25.4 22.425 24.85 22.425C24.3167 22.425 23.875 22.6 23.525 22.95C23.175 23.3 23 23.7417 23 24.275C23 24.975 23.3292 25.7042 23.9875 26.4625C24.6458 27.2209 25.5333 28.1084 26.65 29.125C26.8833 29.325 27.0208 29.5709 27.0625 29.8625C27.1042 30.1542 27.025 30.4 26.825 30.6ZM28 20.425C28.2833 20.425 28.5208 20.3292 28.7125 20.1375C28.9042 19.9459 29 19.7084 29 19.425C29 19.1417 28.9042 18.9042 28.7125 18.7125C28.5208 18.5209 28.2833 18.425 28 18.425C27.7167 18.425 27.4792 18.5209 27.2875 18.7125C27.0958 18.9042 27 19.1417 27 19.425C27 19.7084 27.0958 19.9459 27.2875 20.1375C27.4792 20.3292 27.7167 20.425 28 20.425ZM31.225 38.425C30.8583 38.425 30.4958 38.375 30.1375 38.275C29.7792 38.175 29.4333 38.0167 29.1 37.8C29.2833 37.5667 29.4667 37.2917 29.65 36.975C29.8333 36.6584 30 36.3667 30.15 36.1C30.3333 36.2167 30.5167 36.3001 30.7 36.35C30.8833 36.4 31.0667 36.425 31.25 36.425C31.7833 36.425 32.2292 36.2375 32.5875 35.8625C32.9458 35.4875 33.125 35.0417 33.125 34.525C33.125 34.2084 33.0583 33.8667 32.925 33.5C32.7917 33.1334 32.6333 32.6834 32.45 32.15L32.925 31.35C33.625 31.2167 34.3542 31.0417 35.1125 30.825C35.8708 30.6084 36.25 30.0334 36.25 29.1C36.25 28.4334 36.0042 27.95 35.5125 27.65C35.0208 27.35 34.4833 27.2 33.9 27.2C33.3167 27.2 32.6417 27.3 31.875 27.5C31.1083 27.7 30.2333 27.9584 29.25 28.275C28.9667 28.3584 28.6917 28.3459 28.425 28.2375C28.1583 28.1292 27.9833 27.9334 27.9 27.65C27.8167 27.3667 27.8583 27.1 28.025 26.85C28.1917 26.6 28.4167 26.4334 28.7 26.35C29.75 26.0167 30.7 25.7417 31.55 25.525C32.4 25.3084 33.1917 25.2 33.925 25.2C35.075 25.2 36.0833 25.5417 36.95 26.225C37.8167 26.9084 38.25 27.8667 38.25 29.1C38.25 29.5167 38.1875 29.9125 38.0625 30.2875C37.9375 30.6625 37.7583 31.0167 37.525 31.35C38.2417 31.4334 38.8333 31.7625 39.3 32.3375C39.7667 32.9125 40 33.5584 40 34.275C40 35.1084 39.7125 35.8167 39.1375 36.4C38.5625 36.9834 37.85 37.275 37 37.275C36.5667 37.275 36.1458 37.1792 35.7375 36.9875C35.3292 36.7959 34.9917 36.525 34.725 36.175C34.3917 36.875 33.9208 37.425 33.3125 37.825C32.7042 38.225 32.0083 38.425 31.225 38.425ZM37.025 35.275C37.3083 35.275 37.5417 35.1792 37.725 34.9875C37.9083 34.7959 38 34.5584 38 34.275C38 33.9917 37.9042 33.75 37.7125 33.55C37.5208 33.35 37.2833 33.25 37 33.25C36.7167 33.25 36.4792 33.3459 36.2875 33.5375C36.0958 33.7292 36 33.9667 36 34.25C36 34.5334 36.1 34.775 36.3 34.975C36.5 35.1751 36.7417 35.275 37.025 35.275Z" fill="#EE46BC"/>
</g>
</svg>
