<svg width="32" height="33" viewBox="0 0 32 33" fill="none" xmlns="http://www.w3.org/2000/svg">
<path d="M28 13.8333H4M21.3333 3.16663V8.49996M10.6667 3.16663V8.49996M12 21.8333L14.6667 24.5L20.6667 18.5M10.4 29.8333H21.6C23.8402 29.8333 24.9603 29.8333 25.816 29.3973C26.5686 29.0138 27.1805 28.4019 27.564 27.6493C28 26.7936 28 25.6735 28 23.4333V12.2333C28 9.99308 28 8.87298 27.564 8.01733C27.1805 7.26468 26.5686 6.65276 25.816 6.26927C24.9603 5.83329 23.8402 5.83329 21.6 5.83329H10.4C8.15979 5.83329 7.03969 5.83329 6.18404 6.26927C5.43139 6.65276 4.81947 7.26468 4.43597 8.01733C4 8.87298 4 9.99308 4 12.2333V23.4333C4 25.6735 4 26.7936 4.43597 27.6493C4.81947 28.4019 5.43139 29.0138 6.18404 29.3973C7.03969 29.8333 8.15979 29.8333 10.4 29.8333Z" stroke="white" stroke-width="2.5" stroke-linecap="round" stroke-linejoin="round"/>
</svg>
