<svg width="57" height="56" viewBox="0 0 57 56" fill="none" xmlns="http://www.w3.org/2000/svg">
<rect x="4.5" y="4" width="48" height="48" rx="24" fill="#FEF0C7"/>
<rect x="4.5" y="4" width="48" height="48" rx="24" stroke="#FFFAEB" stroke-width="8"/>
<path d="M28 18V19M19 28H18M21.5 21.5L20.8999 20.8999M34.5 21.5L35.1002 20.8999M38 28H37M26 29.5H30M28 29.5V34.5M31.5 32.874C33.0141 31.7848 34 30.0075 34 28C34 24.6863 31.3137 22 28 22C24.6863 22 22 24.6863 22 28C22 30.0075 22.9859 31.7848 24.5 32.874V34.8C24.5 35.9201 24.5 36.4802 24.718 36.908C24.9097 37.2843 25.2157 37.5903 25.592 37.782C26.0198 38 26.5799 38 27.7 38H28.3C29.4201 38 29.9802 38 30.408 37.782C30.7843 37.5903 31.0903 37.2843 31.282 36.908C31.5 36.4802 31.5 35.9201 31.5 34.8V32.874Z" stroke="#F79009" stroke-width="2" stroke-linecap="round" stroke-linejoin="round"/>
</svg>
