<svg width="57" height="56" viewBox="0 0 57 56" fill="none" xmlns="http://www.w3.org/2000/svg">
<rect x="4.5" y="4" width="48" height="48" rx="24" fill="#D1FADF"/>
<rect x="4.5" y="4" width="48" height="48" rx="24" stroke="#ECFDF3" stroke-width="8"/>
<mask id="mask0_876_2450" style="mask-type:alpha" maskUnits="userSpaceOnUse" x="16" y="16" width="24" height="24">
<rect x="16" y="16" width="24" height="24" fill="#D9D9D9"/>
</mask>
<g mask="url(#mask0_876_2450)">
<path d="M26.4968 30.1L26.6177 31.06C26.6379 31.22 26.7034 31.35 26.8143 31.45C26.9252 31.55 27.0613 31.6 27.2226 31.6H28.5534C28.7147 31.6 28.8508 31.55 28.9617 31.45C29.0726 31.35 29.1381 31.22 29.1583 31.06L29.2792 30.1C29.4405 30.04 29.5867 29.97 29.7178 29.89C29.8488 29.81 29.9648 29.72 30.0656 29.62L30.9729 30.01C31.1141 30.07 31.2552 30.08 31.3963 30.04C31.5375 30 31.6484 29.91 31.729 29.77L32.3944 28.63C32.4751 28.49 32.5003 28.35 32.47 28.21C32.4398 28.07 32.3642 27.95 32.2432 27.85L31.4568 27.28C31.4972 27.12 31.5173 26.96 31.5173 26.8C31.5173 26.64 31.4972 26.48 31.4568 26.32L32.2432 25.75C32.3642 25.65 32.4398 25.53 32.47 25.39C32.5003 25.25 32.4751 25.11 32.3944 24.97L31.729 23.83C31.6484 23.69 31.5375 23.6 31.3963 23.56C31.2552 23.52 31.1141 23.53 30.9729 23.59L30.0656 23.98C29.9648 23.88 29.8488 23.79 29.7178 23.71C29.5867 23.63 29.4405 23.56 29.2792 23.5L29.1583 22.54C29.1381 22.38 29.0726 22.25 28.9617 22.15C28.8508 22.05 28.7147 22 28.5534 22H27.2226C27.0613 22 26.9252 22.05 26.8143 22.15C26.7034 22.25 26.6379 22.38 26.6177 22.54L26.4968 23.5C26.3354 23.56 26.1893 23.63 26.0582 23.71C25.9271 23.79 25.8112 23.88 25.7104 23.98L24.8031 23.59C24.6619 23.53 24.5208 23.52 24.3796 23.56C24.2385 23.6 24.1276 23.69 24.047 23.83L23.3816 24.97C23.3009 25.11 23.2757 25.25 23.306 25.39C23.3362 25.53 23.4118 25.65 23.5328 25.75L24.3192 26.32C24.2788 26.48 24.2587 26.64 24.2587 26.8C24.2587 26.96 24.2788 27.12 24.3192 27.28L23.5328 27.85C23.4118 27.95 23.3362 28.07 23.306 28.21C23.2757 28.35 23.3009 28.49 23.3816 28.63L24.047 29.77C24.1276 29.91 24.2385 30 24.3796 30.04C24.5208 30.08 24.6619 30.07 24.8031 30.01L25.7104 29.62C25.8112 29.72 25.9271 29.81 26.0582 29.89C26.1893 29.97 26.3354 30.04 26.4968 30.1ZM27.888 28.6C27.3839 28.6 26.9555 28.425 26.6026 28.075C26.2498 27.725 26.0733 27.3 26.0733 26.8C26.0733 26.3 26.2498 25.875 26.6026 25.525C26.9555 25.175 27.3839 25 27.888 25C28.3921 25 28.8205 25.175 29.1734 25.525C29.5262 25.875 29.7027 26.3 29.7027 26.8C29.7027 27.3 29.5262 27.725 29.1734 28.075C28.8205 28.425 28.3921 28.6 27.888 28.6ZM20.6293 34.84C19.48 33.8 18.5878 32.585 17.9527 31.195C17.3176 29.805 17 28.34 17 26.8C17 23.8 18.0586 21.25 20.1757 19.15C22.2928 17.05 24.8636 16 27.888 16C30.4084 16 32.6414 16.735 34.5871 18.205C36.5329 19.675 37.7981 21.59 38.3828 23.95L39.9555 30.1C40.0563 30.48 39.9858 30.825 39.7438 31.135C39.5019 31.445 39.1792 31.6 38.776 31.6H36.3564V35.2C36.3564 35.86 36.1195 36.425 35.6457 36.895C35.1719 37.365 34.6023 37.6 33.9369 37.6H31.5173V38.8C31.5173 39.14 31.4014 39.425 31.1695 39.655C30.9376 39.885 30.6503 40 30.3075 40C29.9648 40 29.6775 39.885 29.4456 39.655C29.2137 39.425 29.0978 39.14 29.0978 38.8V36.4C29.0978 36.06 29.2137 35.775 29.4456 35.545C29.6775 35.315 29.9648 35.2 30.3075 35.2H33.9369V30.4C33.9369 30.06 34.0528 29.775 34.2847 29.545C34.5166 29.315 34.8039 29.2 35.1467 29.2H37.2033L36.054 24.55C35.5902 22.73 34.6023 21.25 33.09 20.11C31.5778 18.97 29.8438 18.4 27.888 18.4C25.5491 18.4 23.553 19.21 21.8996 20.83C20.2462 22.45 19.4196 24.42 19.4196 26.74C19.4196 27.94 19.6666 29.08 20.1605 30.16C20.6545 31.24 21.3552 32.2 22.2625 33.04L23.0489 33.76V38.8C23.0489 39.14 22.9329 39.425 22.7011 39.655C22.4692 39.885 22.1819 40 21.8391 40C21.4963 40 21.209 39.885 20.9771 39.655C20.7453 39.425 20.6293 39.14 20.6293 38.8V34.84Z" fill="#12B76A"/>
</g>
</svg>
