<svg width="32" height="33" viewBox="0 0 32 33" fill="none" xmlns="http://www.w3.org/2000/svg">
<path d="M6.66675 19.5484C4.19826 20.6374 2.66675 22.1549 2.66675 23.8333C2.66675 27.147 8.63628 29.8333 16.0001 29.8333C23.3639 29.8333 29.3334 27.147 29.3334 23.8333C29.3334 22.1549 27.8019 20.6374 25.3334 19.5484M24.0001 11.1666C24.0001 16.5849 18.0001 19.1666 16.0001 23.1666C14.0001 19.1666 8.00008 16.5849 8.00008 11.1666C8.00008 6.74835 11.5818 3.16663 16.0001 3.16663C20.4184 3.16663 24.0001 6.74835 24.0001 11.1666ZM17.3334 11.1666C17.3334 11.903 16.7365 12.5 16.0001 12.5C15.2637 12.5 14.6667 11.903 14.6667 11.1666C14.6667 10.4302 15.2637 9.83329 16.0001 9.83329C16.7365 9.83329 17.3334 10.4302 17.3334 11.1666Z" stroke="white" stroke-width="2.5" stroke-linecap="round" stroke-linejoin="round"/>
</svg>
